<svg width="16" height="16" viewBox="0 0 16 16" fill="none" xmlns="http://www.w3.org/2000/svg">
<path d="M12.9365 8.65C12.9696 8.45515 12.9696 8.22756 12.9696 8C12.9696 7.77244 12.9365 7.57756 12.9365 7.35L14.3323 6.27756C14.4655 6.18012 14.4985 6.01766 14.3989 5.85512L13.0692 3.6125C13.0027 3.48237 12.8034 3.41766 12.6703 3.48237L11.0082 4.13241C10.6758 3.87247 10.2771 3.64487 9.8782 3.48237L9.64545 1.75997C9.61232 1.63016 9.47923 1.50003 9.31301 1.50003H6.6537C6.48751 1.50003 6.35442 1.63016 6.32129 1.75997L6.05542 3.48237C5.65645 3.64487 5.29092 3.87244 4.92508 4.13241L3.26301 3.48237C3.09679 3.41766 2.93058 3.48237 2.86404 3.6125L1.53439 5.85516C1.46817 5.98494 1.50123 6.18012 1.60092 6.27759L3.03032 7.35C3.03032 7.57756 2.9972 7.77244 2.9972 8C2.9972 8.22756 3.03032 8.42244 3.03032 8.65L1.63445 9.72244C1.50132 9.81987 1.46826 9.98234 1.56789 10.1449L2.89754 12.3875C2.96411 12.5176 3.16342 12.5823 3.29651 12.5176L4.95861 11.8676C5.29101 12.1275 5.68967 12.3551 6.08861 12.5176L6.35448 14.24C6.38789 14.4025 6.52067 14.5 6.68689 14.5H9.3462C9.51242 14.5 9.64551 14.3698 9.67864 14.24L9.94483 12.5176C10.3435 12.3551 10.7093 12.1276 11.0748 11.8676L12.7369 12.5176C12.9031 12.5823 13.0693 12.5176 13.1359 12.3875L14.4655 10.1448C14.5321 10.0151 14.4987 9.81987 14.399 9.7224L12.9365 8.65ZM7.98339 10.275C6.68686 10.275 5.65651 9.26765 5.65651 8C5.65651 6.73234 6.68686 5.725 7.98339 5.725C9.27992 5.725 10.3103 6.73234 10.3103 8C10.3103 9.26765 9.27992 10.275 7.98339 10.275Z" fill="white"/>
</svg>
