<svg width="16" height="16" viewBox="0 0 16 16" fill="none" xmlns="http://www.w3.org/2000/svg">
<g clip-path="url(#clip0_5_23)">
<path d="M15.9944 7.98611C15.9944 8.48611 15.5778 8.87777 15.1056 8.87777H14.2167L14.2361 13.3278C14.2361 13.4028 14.2306 13.4778 14.2222 13.5528V14C14.2222 14.6139 13.725 15.1111 13.1111 15.1111H12.6667C12.6361 15.1111 12.6056 15.1111 12.575 15.1083C12.5361 15.1111 12.4972 15.1111 12.4583 15.1111H11.5556H10.8889C10.275 15.1111 9.77778 14.6139 9.77778 14V13.3333V11.5556C9.77778 11.0639 9.38056 10.6667 8.88889 10.6667H7.11111C6.61944 10.6667 6.22222 11.0639 6.22222 11.5556V13.3333V14C6.22222 14.6139 5.725 15.1111 5.11111 15.1111H4.44444H3.55833C3.51667 15.1111 3.475 15.1083 3.43333 15.1056C3.4 15.1083 3.36667 15.1111 3.33333 15.1111H2.88889C2.275 15.1111 1.77778 14.6139 1.77778 14V10.8889C1.77778 10.8639 1.77778 10.8361 1.78056 10.8111V8.87777H0.888889C0.388889 8.87777 0 8.48888 0 7.98611C0 7.73611 0.0833333 7.51389 0.277778 7.31944L7.4 1.11111C7.59444 0.916663 7.81667 0.888885 8.01111 0.888885C8.20555 0.888885 8.42778 0.944441 8.59444 1.08333L15.6889 7.31944C15.9111 7.51389 16.0222 7.73611 15.9944 7.98611Z" fill="white"/>
</g>
<defs>
<clipPath id="clip0_5_23">
<rect width="16" height="16" fill="white"/>
</clipPath>
</defs>
</svg>
