<svg width="25" height="25" viewBox="0 0 25 25" fill="none" xmlns="http://www.w3.org/2000/svg">
<g clip-path="url(#clip0_6_49)">
<path d="M12.5 25C15.8152 25 18.9946 23.683 21.3388 21.3388C23.683 18.9946 25 15.8152 25 12.5C25 9.18479 23.683 6.00537 21.3388 3.66117C18.9946 1.31696 15.8152 0 12.5 0C9.18479 0 6.00537 1.31696 3.66117 3.66117C1.31696 6.00537 0 9.18479 0 12.5C0 15.8152 1.31696 18.9946 3.66117 21.3388C6.00537 23.683 9.18479 25 12.5 25ZM10.9375 9.375V15.625C10.9375 16.4893 10.2393 17.1875 9.375 17.1875C8.51074 17.1875 7.8125 16.4893 7.8125 15.625V9.375C7.8125 8.51074 8.51074 7.8125 9.375 7.8125C10.2393 7.8125 10.9375 8.51074 10.9375 9.375ZM17.1875 9.375V15.625C17.1875 16.4893 16.4893 17.1875 15.625 17.1875C14.7607 17.1875 14.0625 16.4893 14.0625 15.625V9.375C14.0625 8.51074 14.7607 7.8125 15.625 7.8125C16.4893 7.8125 17.1875 8.51074 17.1875 9.375Z" fill="white"/>
</g>
<defs>
<clipPath id="clip0_6_49">
<rect width="25" height="25" fill="white"/>
</clipPath>
</defs>
</svg>
