<svg width="25" height="25" viewBox="0 0 25 25" fill="none" xmlns="http://www.w3.org/2000/svg">
<path d="M20.8438 3.76951C23.3789 5.83201 25 8.97654 25 12.5C25 16.0234 23.3789 19.1719 20.8438 21.2305C20.4414 21.5586 19.8516 21.4961 19.5234 21.0937C19.1953 20.6914 19.2578 20.1015 19.6602 19.7734C21.7773 18.0547 23.125 15.4375 23.125 12.5C23.125 9.56248 21.7773 6.94529 19.6602 5.22264C19.2578 4.89451 19.1992 4.30467 19.5234 3.90233C19.8477 3.49998 20.4414 3.44139 20.8438 3.76561V3.76951ZM18.4805 6.67967C20.168 8.05467 21.25 10.1523 21.25 12.5C21.25 14.8476 20.168 16.9453 18.4805 18.3203C18.0781 18.6484 17.4883 18.5859 17.1602 18.1836C16.832 17.7812 16.8945 17.1914 17.2969 16.8633C18.5664 15.832 19.375 14.2617 19.375 12.5C19.375 10.7383 18.5664 9.16795 17.2969 8.13279C16.8945 7.80467 16.8359 7.21483 17.1602 6.81248C17.4844 6.41014 18.0781 6.35154 18.4805 6.67576V6.67967ZM16.1172 9.58983C16.957 10.2773 17.5 11.3242 17.5 12.5C17.5 13.6758 16.957 14.7226 16.1172 15.4101C15.7148 15.7383 15.125 15.6758 14.7969 15.2734C14.4688 14.8711 14.5312 14.2812 14.9336 13.9531C15.3555 13.6094 15.625 13.0859 15.625 12.5C15.625 11.914 15.3555 11.3906 14.9336 11.043C14.5312 10.7148 14.4727 10.125 14.7969 9.72264C15.1211 9.32029 15.7148 9.2617 16.1172 9.58592V9.58983ZM11.7617 3.85936C12.2109 4.06248 12.5 4.50779 12.5 4.99998V20C12.5 20.4922 12.2109 20.9375 11.7617 21.1406C11.3125 21.3437 10.7852 21.2617 10.418 20.9336L5.14844 16.25H2.5C1.12109 16.25 0 15.1289 0 13.75V11.25C0 9.87108 1.12109 8.74998 2.5 8.74998H5.14844L10.418 4.06639C10.7852 3.73826 11.3125 3.66014 11.7617 3.85936Z" fill="white"/>
</svg>
